<svg id="Capa_3" data-name="Capa 3" xmlns="http://www.w3.org/2000/svg" viewBox="0 0 105 113.5"><defs><style>.cls-1{fill:#878787;}</style></defs><title>template2</title><path class="cls-1" d="M125,17a1,1,0,0,1,1,1V74a1,1,0,0,1-1,1H24.51a1,1,0,0,1-1-1V18a1,1,0,0,1,1-1H125m0-1H24.51a2,2,0,0,0-2,2V74a2,2,0,0,0,2,2H125a2,2,0,0,0,2-2V18a2,2,0,0,0-2-2Z" transform="translate(-22.5 -16)"/><rect class="cls-1" y="69.5" width="105" height="10"/><rect class="cls-1" y="86.5" width="105" height="10"/><rect class="cls-1" y="103.5" width="105" height="10"/><path class="cls-1" d="M94.8,33.62l-8.1-.39-.47-5.28A2,2,0,0,0,84,26.14h0L54.91,28.54a2,2,0,0,0-1.9,2.1v0l2.08,23.15a2,2,0,0,0,2.25,1.8h0l1.47-.12L58.57,60a2.23,2.23,0,0,0,2.15,2.31h.05L93.2,63.84a2.25,2.25,0,0,0,2.44-2v0L97,35.91a2.22,2.22,0,0,0-2.15-2.29Zm-34.85.51-.69,13.24L57.54,49.8,56,32.32v-.1a1,1,0,0,1,.93-.92l25.63-2.1a1,1,0,0,1,1,.78s0,0,0,0,0,0,0,0l.27,3-21.5-1A2.27,2.27,0,0,0,59.94,34.13Zm32.8,23.26L88.16,52l-2.7-3.21a1.49,1.49,0,0,0-1-.54,1.65,1.65,0,0,0-1.09.4l-1.61,1.17a1.63,1.63,0,0,1-1,.32,1.4,1.4,0,0,1-.89-.37l-.34-.33-4.21-4.79A1.86,1.86,0,0,0,74,44a2,2,0,0,0-1.45.54L62.57,55.17l-.67.73,0-.67.67-12.66.32-6.18v-.1a1.15,1.15,0,0,1,1.17-.88l20.05,1,2.82.14,5.72.27a1,1,0,0,1,1,1s0,0,0,0,0,0,0,0Z" transform="translate(-22.5 -16)"/><circle class="cls-1" cx="64.01" cy="26.15" r="3.46"/></svg>