<svg id="Capa_2" data-name="Capa 2" xmlns="http://www.w3.org/2000/svg" viewBox="0 0 105 113"><defs><style>.cls-1{fill:#878787;}</style></defs><title>template4</title><rect class="cls-1" y="54.5" width="105" height="3.5"/><rect class="cls-1" y="48.5" width="105" height="3.5"/><path class="cls-1" d="M125.26,17.5a.75.75,0,0,1,.74.74V59.76a.75.75,0,0,1-.74.74h-101a.75.75,0,0,1-.74-.74V18.24a.75.75,0,0,1,.74-.74h101m0-1h-101a1.75,1.75,0,0,0-1.74,1.74V59.76a1.75,1.75,0,0,0,1.74,1.74h101A1.75,1.75,0,0,0,127,59.76V18.24a1.75,1.75,0,0,0-1.74-1.74Z" transform="translate(-22.5 -16.5)"/><path class="cls-1" d="M91.5,89h-33a5,5,0,0,0-5,5v20a5,5,0,0,0,5,5h33a5,5,0,0,0,5-5V94A5,5,0,0,0,91.5,89Zm-15,19.33L69,112.66V95.34l7.5,4.33L84,104Z" transform="translate(-22.5 -16.5)"/><path class="cls-1" d="M125.15,80a.85.85,0,0,1,.85.85v46.8a.85.85,0,0,1-.85.85H24.35a.85.85,0,0,1-.85-.85V80.85a.85.85,0,0,1,.85-.85h100.8m0-1H24.35a1.85,1.85,0,0,0-1.85,1.85v46.8a1.85,1.85,0,0,0,1.85,1.85h100.8a1.85,1.85,0,0,0,1.85-1.85V80.85A1.85,1.85,0,0,0,125.15,79Z" transform="translate(-22.5 -16.5)"/><path class="cls-1" d="M94.8,27.62l-8.1-.39-.47-5.28A2,2,0,0,0,84,20.14h0L54.91,22.54a2,2,0,0,0-1.9,2.1v0l2.08,23.15a2,2,0,0,0,2.25,1.8h0l1.47-.12L58.57,54a2.23,2.23,0,0,0,2.15,2.31h.05L93.2,57.84a2.25,2.25,0,0,0,2.44-2v0L97,29.91a2.22,2.22,0,0,0-2.15-2.29Zm-34.85.51-.69,13.24L57.54,43.8,56,26.32v-.1a1,1,0,0,1,.93-.92l25.63-2.1a1,1,0,0,1,1,.78s0,0,0,0,0,0,0,0l.27,3-21.5-1A2.27,2.27,0,0,0,59.94,28.13Zm32.8,23.26L88.16,46l-2.7-3.21a1.49,1.49,0,0,0-1-.54,1.65,1.65,0,0,0-1.09.4l-1.61,1.17a1.63,1.63,0,0,1-1,.32,1.4,1.4,0,0,1-.89-.37l-.34-.33-4.21-4.79A1.86,1.86,0,0,0,74,38a2,2,0,0,0-1.45.54L62.57,49.17l-.67.73,0-.67.67-12.66.32-6.18v-.1a1.15,1.15,0,0,1,1.17-.88l20.05,1,2.82.14,5.72.27a1,1,0,0,1,1,1s0,0,0,0,0,0,0,0Z" transform="translate(-22.5 -16.5)"/><circle class="cls-1" cx="64.01" cy="19.65" r="3.46"/></svg>