<svg id="Capa_4" data-name="Capa 4" xmlns="http://www.w3.org/2000/svg" viewBox="0 0 105 113.5"><defs><style>.cls-1{fill:#878787;}</style></defs><title>template3</title><path class="cls-1" d="M91.5,30h-33a5,5,0,0,0-5,5V55a5,5,0,0,0,5,5h33a5,5,0,0,0,5-5V35A5,5,0,0,0,91.5,30Zm-15,19.33L69,53.66V36.34l7.5,4.33L84,45Z" transform="translate(-22.5 -16)"/><rect class="cls-1" y="69.5" width="105" height="10"/><rect class="cls-1" y="86.5" width="105" height="10"/><rect class="cls-1" y="103.5" width="105" height="10"/><path class="cls-1" d="M125,17a1,1,0,0,1,1,1V74a1,1,0,0,1-1,1H24.51a1,1,0,0,1-1-1V18a1,1,0,0,1,1-1H125m0-1H24.51a2,2,0,0,0-2,2V74a2,2,0,0,0,2,2H125a2,2,0,0,0,2-2V18a2,2,0,0,0-2-2Z" transform="translate(-22.5 -16)"/></svg>